<?xml version="1.0" standalone="no"?><!DOCTYPE svg PUBLIC "-//W3C//DTD SVG 1.1//EN" "http://www.w3.org/Graphics/SVG/1.1/DTD/svg11.dtd"><svg t="1691071014333" class="icon" viewBox="0 0 1024 1024" version="1.1" xmlns="http://www.w3.org/2000/svg" p-id="1625" xmlns:xlink="http://www.w3.org/1999/xlink" width="200" height="200"><path d="M0 0h1023.775071v1023.775071H0z" fill="#D8D8D8" fill-opacity="0" p-id="1626"></path><path d="M726.8803 439.319949c5.450097-2.499216 10.900193-4.817765 16.35029-7.286869 5.419986-2.950881 9.876418-7.226648 12.887522-12.465967a31.616583 31.616583 0 0 0-10.478639-41.944667 37.428012 37.428012 0 0 0-20.475502-5.600652c-6.985759 0.812998-13.700519 2.860548-19.87328 6.022206-10.689416 4.757543-21.168055 9.93664-31.435917 15.567404a351.305404 351.305404 0 0 0-118.246021 111.561371 444.438825 444.438825 0 0 0-22.252052 37.789345 4316.657252 4316.657252 0 0 0-74.193582-130.019434c-5.419986-8.732199-10.689416-17.464398-16.35029-26.196598-9.695752-14.995294-30.291698-19.662504-46.069878-10.448527a31.496139 31.496139 0 0 0-15.898625 28.545257c0.210777 4.3661 1.324885 8.671977 3.282103 12.646634 2.61966 4.787654 5.901762 9.33442 8.732199 14.152184a2868.67797 2868.67797 0 0 1 56.909849 97.589853c14.633961 25.955709 29.027034 52.152307 43.48033 78.108016l7.437425 13.911297c-8.732199 27.340817-15.657736 55.16341-20.746501 83.317224l-5.419986-4.576877a212.22255 212.22255 0 0 0-34.507242-23.486605c-8.069756-4.3661-15.717958-8.521422-25.082489-8.732199h-2.167994c-18.548395 0.963553-32.760802 16.019069-31.767139 33.664134 0.150555 2.830437 0.722665 5.630763 1.656107 8.310644 2.167994 6.202872 6.263095 11.622858 11.713191 15.597515 3.282102 2.04755 6.774982 3.733768 10.237751 5.600651 4.757543 2.469105 9.33442 5.179097 13.760741 8.129979a144.051175 144.051175 0 0 1 46.912988 53.176081l2.830437 6.232984c-3.011103 60.101619-6.172761 119.39024 1.204441 179.401526 1.204441 9.274198 2.559438 18.698951 6.835204 27.099928 7.407314 14.60385 24.028603 22.342385 40.529448 17.193399a33.122135 33.122135 0 0 0 20.776612-18.518284c6.624427-15.507181 1.656107-35.531017 0.511888-51.911419-2.709993-38.602342-6.654538-76.843352-5.480208-115.566139 1.656107-50.405867 8.069756-100.570845 19.180727-149.892714 4.3661-19.331282 9.816196-38.391565 16.380401-57.120627l0.421554-1.053886c20.957278-60.011286 53.898746-116.529692 105.388611-157.029029a346.698417 346.698417 0 0 1 52.995415-31.767139z" fill="#07C160" p-id="1627"></path><path d="M948.015715 361.633488A447.20904 447.20904 0 0 0 816.008953 147.242944a448.293037 448.293037 0 0 0-138.08919-85.81644A457.627457 457.627457 0 0 0 517.789297 30.111031h-11.743302c-54.952632 0.843109-109.303044 11.38197-160.190687 31.164918a457.44679 457.44679 0 0 0-130.049545 78.499459c-65.521605 56.759294-112.97659 129.868879-137.005194 211.04822a447.449928 447.449928 0 0 0 8.942977 282.080143c35.982683 98.011407 106.623162 181.057632 199.846916 234.896156 4.998431 2.167994 10.448528 3.22188 15.958846 3.101437 9.996862-0.391443 19.27106-5.058653 25.293267-12.676745 6.022206-7.58798 8.280534-17.313843 6.112539-26.58804-1.74644-7.467536-6.323317-13.309076-12.225079-18.066619l-2.619659-1.686218a403.277045 403.277045 0 0 1-46.250545-31.556361C208.970559 728.686962 162.659792 659.130479 141.220738 581.353685a385.933091 385.933091 0 0 1 37.307568-294.756887 387.619308 387.619308 0 0 1 96.656411-111.109706c113.097034-89.851318 271.48106-107.104939 402.975934-43.841662a386.655755 386.655755 0 0 1 118.035244 87.894101 385.02976 385.02976 0 0 1 83.106447 144.352285 386.023424 386.023424 0 0 1 4.817765 212.884992 387.438642 387.438642 0 0 1-100.149291 173.951429 398.910945 398.910945 0 0 1-63.504166 51.068309c-8.069756 5.209208-16.561067 9.786085-24.660934 14.965183a35.711683 35.711683 0 0 0-10.448528 12.044413c-7.768646 16.320179-0.120444 35.531017 17.012732 42.90822 1.625996 0.692554 3.282102 1.264663 4.998432 1.716328 7.527758 1.716329 15.416848 0.993664 22.462829-2.107772l2.830437-1.415218c87.472546-49.382092 155.674033-124.569337 194.216153-214.149656a447.148818 447.148818 0 0 0 21.168055-294.124556z" fill="#3A3A3A" p-id="1628"></path></svg>